<?xml version="1.0" encoding="iso-8859-1"?>
<!-- Generator: Adobe Illustrator 19.0.0, SVG Export Plug-In . SVG Version: 6.00 Build 0)  -->
<svg version="1.1" id="Layer_1" xmlns="http://www.w3.org/2000/svg" xmlns:xlink="http://www.w3.org/1999/xlink" x="0px" y="0px"
	 viewBox="0 0 494.951 494.951" style="enable-background:new 0 0 494.951 494.951;" xml:space="preserve">
<g>
	<polygon style="fill:#C6C5CA;" points="279.441,353.393 252.445,326.397 221.079,351.599 242.06,372.58 	"/>
	<polygon style="fill:#C6C5CA;" points="168.573,242.524 141.577,215.529 122.389,252.91 143.371,273.891 	"/>
	<polygon style="fill:#C6C5CA;" points="223.994,297.945 197.025,270.976 171.822,302.343 192.628,323.148 	"/>
	<polygon style="fill:#C6C5CA;" points="221.778,176.305 182.085,136.612 162.897,173.993 196.576,207.672 	"/>
	<polygon style="fill:#C6C5CA;" points="358.358,312.885 318.664,273.191 287.298,298.394 320.977,332.072 	"/>
	<polygon style="fill:#C6C5CA;" points="290.213,244.74 250.23,204.757 225.028,236.124 258.847,269.942 	"/>
	<polygon style="fill:#C6C5CA;" points="274.983,110.087 222.592,57.696 203.405,95.077 249.781,141.453 	"/>
	<polygon style="fill:#C6C5CA;" points="356.432,191.535 303.435,138.539 278.233,169.905 325.065,216.737 	"/>
	<polygon style="fill:#C6C5CA;" points="437.274,272.377 384.883,219.987 353.517,245.189 399.893,291.565 	"/>
	<path style="fill:#E0E0E2;" d="M472.046,187.725c-16.349-16.349-38.192-23.928-59.642-22.759
		c1.17-21.45-6.409-43.292-22.759-59.642c-14.783-14.783-34.437-22.924-55.343-22.924c-1.439,0-2.87,0.047-4.296,0.124
		c1.158-21.437-6.423-43.262-22.762-59.601C292.462,8.141,272.807,0,251.901,0c-20.906,0-40.56,8.141-55.343,22.924l-2.218,2.218
		L60.257,286.362c0.006-0.006,29.715,29.703,29.715,29.703l32.417-63.155l19.188-37.381l21.32-41.536l19.188-37.381l21.32-41.535
		l19.188-37.381l4.317-8.41C233.854,43.277,242.625,40,251.901,40c10.221,0,19.831,3.981,27.059,11.208
		c14.92,14.92,14.92,39.197,0,54.117l-0.769,0.769l-3.208,3.993l-25.202,31.366l-28.003,34.852l-25.202,31.366l-28.003,34.853
		l-25.202,31.366l-42.579,52.994l28.452,28.452l42.579-52.993l25.202-31.366l28.003-34.853l25.202-31.366l28.003-34.852
		l25.202-31.366l4.508-5.61c7.142-6.796,16.464-10.528,26.36-10.527c10.221,0,19.831,3.98,27.058,11.208
		c14.69,14.69,14.916,38.45,0.68,53.419l-5.609,4.507l-31.366,25.202l-34.852,28.003l-31.366,25.202l-34.853,28.003l-31.366,25.202
		l-52.994,42.579l28.451,28.451l52.994-42.579l31.367-25.202l34.853-28.003l31.366-25.202l34.852-28.003l31.366-25.202l3.146-2.528
		l0.847-0.68l0.768-0.768c14.935-14.92,39.201-14.916,54.116,0c14.25,14.25,14.89,37.036,1.92,52.052l-8.407,4.316l-37.381,19.188
		l-41.535,21.32l-37.381,19.188l-41.536,21.32L242.06,372.58l-63.155,32.417l29.709,29.709
		c-0.006,0.006,261.213-134.077,261.213-134.077l2.218-2.218C502.562,267.895,502.562,218.241,472.046,187.725z"/>
	<path style="fill:#3D9AE2;" d="M178.905,404.998l-10.82-10.82l-33.647-33.647L30.692,464.278
		c40.899,40.899,107.452,40.899,148.358-0.007l29.558-29.558C208.614,434.707,178.905,404.998,178.905,404.998z"/>
	<path style="fill:#78B9EB;" d="M129.243,355.336l-28.452-28.452l-40.529-40.529c-0.006,0.006-29.564,29.564-29.564,29.564
		c-40.906,40.906-40.906,107.459-0.007,148.358l103.747-103.747L129.243,355.336z"/>
</g>
<g>
</g>
<g>
</g>
<g>
</g>
<g>
</g>
<g>
</g>
<g>
</g>
<g>
</g>
<g>
</g>
<g>
</g>
<g>
</g>
<g>
</g>
<g>
</g>
<g>
</g>
<g>
</g>
<g>
</g>
</svg>
