<svg xmlns="http://www.w3.org/2000/svg" viewBox="0 0 405 405"><defs><style>.cls-1{fill:#f9eed7;}.cls-2{fill:#494949;}.cls-3{fill:#ffd15c;}.cls-4{fill:#279fc9;}.cls-5{fill:#34abe0;}.cls-6{fill:#78caef;}.cls-7{fill:#ef4152;}.cls-8{fill:#ff525d;}.cls-9{fill:#ff6e7c;}.cls-10{fill:#e8dbc4;}.cls-11{fill:#fcf8f2;}.cls-12{fill:#fff;stroke:#000;stroke-miterlimit:10;opacity:0;}</style></defs><title>icon-foreground</title><g id="Racket"><path class="cls-1" d="M198.55,222.69a1.79,1.79,0,0,1-2.55,0l-85.11-85.11a1.8,1.8,0,0,1,0-2.56,1.82,1.82,0,0,1,2.56,0l85.1,85.11A1.8,1.8,0,0,1,198.55,222.69Z" transform="translate(0.5 0.5)"/><path class="cls-1" d="M223,184.51a1.8,1.8,0,0,1-2.56,0L149.07,113.1a1.81,1.81,0,1,1,2.55-2.56L223,182A1.8,1.8,0,0,1,223,184.51Z" transform="translate(0.5 0.5)"/><path class="cls-1" d="M181.26,226.29a1.8,1.8,0,0,1-2.56,0l-71.41-71.42a1.8,1.8,0,0,1,0-2.56,1.82,1.82,0,0,1,2.56,0l71.41,71.42A1.8,1.8,0,0,1,181.26,226.29Z" transform="translate(0.5 0.5)"/><path class="cls-1" d="M219.44,201.8a1.8,1.8,0,0,1-2.56,0l-85.11-85.11a1.81,1.81,0,0,1,2.56-2.56l85.11,85.11A1.8,1.8,0,0,1,219.44,201.8Z" transform="translate(0.5 0.5)"/><path class="cls-1" d="M212.65,215.89a1.8,1.8,0,0,1-2.56,0l-92.41-92.4a1.82,1.82,0,0,1,0-2.56,1.8,1.8,0,0,1,2.56,0l92.41,92.41A1.81,1.81,0,0,1,212.65,215.89Z" transform="translate(0.5 0.5)"/><path class="cls-1" d="M189.5,125.74l-67,67a1.81,1.81,0,0,1-2.56-2.56l67-67a1.81,1.81,0,0,1,2.56,2.55Z" transform="translate(0.5 0.5)"/><path class="cls-1" d="M217.05,160.87l-59.43,59.42a1.81,1.81,0,0,1-2.56-2.55l59.43-59.43a1.8,1.8,0,0,1,2.56,0A1.82,1.82,0,0,1,217.05,160.87Z" transform="translate(0.5 0.5)"/><path class="cls-1" d="M175.27,119.09l-59.43,59.43a1.81,1.81,0,0,1-2.56-2.56l59.43-59.43a1.81,1.81,0,0,1,2.56,2.56Z" transform="translate(0.5 0.5)"/><path class="cls-1" d="M159.4,115.31l-47.34,47.34a1.8,1.8,0,0,1-2.56,0,1.82,1.82,0,0,1,0-2.56l47.34-47.34a1.81,1.81,0,0,1,2.56,2.56Z" transform="translate(0.5 0.5)"/><path class="cls-1" d="M220.83,176.74l-47.34,47.33a1.81,1.81,0,0,1-2.56-2.56l47.34-47.33a1.8,1.8,0,0,1,2.56,0A1.82,1.82,0,0,1,220.83,176.74Z" transform="translate(0.5 0.5)"/><path class="cls-1" d="M210.39,146.63l-67,67a1.81,1.81,0,0,1-2.55-2.56l67-67a1.82,1.82,0,0,1,2.56,0A1.8,1.8,0,0,1,210.39,146.63Z" transform="translate(0.5 0.5)"/><path class="cls-1" d="M199.84,136.3l-66.79,66.79a1.81,1.81,0,0,1-2.56-2.56l66.79-66.79a1.81,1.81,0,0,1,2.56,2.56Z" transform="translate(0.5 0.5)"/><path class="cls-2" d="M242.58,239.45c-.07-.08-.13-.18-.21-.26l-13.68-13.68-.1-.08-3.67-3.67-9.35-9.35a3.5,3.5,0,0,0-5,0,3.51,3.51,0,0,0,0,5l4.41,4.4,8.51,8.52a4.15,4.15,0,0,0,.27.32l13.68,13.68.12.1,4.83,4.83h9.9Z" transform="translate(0.5 0.5)"/><path class="cls-2" d="M266.52,263.45c-.07-.08-.13-.18-.21-.26l-13.68-13.68-.1-.08-3.66-3.67H239l8.52,8.52a2.6,2.6,0,0,0,.26.32l13.68,13.68.12.1,4.83,4.83h9.9Z" transform="translate(0.5 0.5)"/><path class="cls-3" d="M226.35,176.31c-2.5-16.1-11.06-32.15-24.11-45.2a87.12,87.12,0,0,0-34.36-21.51A70,70,0,0,0,157,107c-16.66-2.59-31.42,1.57-41.57,11.71s-14.3,24.91-11.71,41.57a71,71,0,0,0,2.95,11.91,87.41,87.41,0,0,0,21.15,33.29c13,13,29.1,21.61,45.2,24.11a56.41,56.41,0,0,0,19.53-.21,44.39,44.39,0,0,0,12.65-4.5,41.07,41.07,0,0,0,9.39-7,40.62,40.62,0,0,0,6.64-8.73,43.51,43.51,0,0,0,4.51-11.63A55.49,55.49,0,0,0,226.35,176.31ZM209,209.65c-.4.45-.81.89-1.24,1.32s-.87.84-1.32,1.24a31.61,31.61,0,0,1-9.85,5.91,33.39,33.39,0,0,1-3.9,1.23,43.81,43.81,0,0,1-14.77,1l-.61-.06c-.89-.09-1.8-.21-2.71-.35-.58-.09-1.17-.19-1.75-.3l-.95-.19a62.69,62.69,0,0,1-10.33-3.06q-1.82-.7-3.6-1.53a73.5,73.5,0,0,1-10.14-5.63c-1-.66-2-1.37-3-2.09a82.42,82.42,0,0,1-8.59-7.19l-1.41-1.37c-.39-.39-.77-.79-1.15-1.18a82.53,82.53,0,0,1-7.21-8.56c-.73-1-1.44-2-2.11-3a75.54,75.54,0,0,1-5.67-10.1c-.55-1.19-1.06-2.38-1.54-3.58a62.84,62.84,0,0,1-3.19-10.67c0-.18-.08-.37-.11-.56-.14-.71-.27-1.42-.38-2.13s-.16-1.14-.23-1.7c0-.21-.05-.41-.07-.61s-.08-.68-.11-1a43.57,43.57,0,0,1,1-14.77,33.35,33.35,0,0,1,1.22-3.9,31.61,31.61,0,0,1,5.91-9.85c.4-.45.82-.89,1.25-1.32s.86-.84,1.32-1.24a31.53,31.53,0,0,1,9.85-5.92,38.24,38.24,0,0,1,3.89-1.22,43.85,43.85,0,0,1,14.77-1c.28,0,.56,0,.84.09l.18,0c.76.08,1.53.19,2.3.3s1.42.24,2.13.38l.57.11a63.94,63.94,0,0,1,10.66,3.19c1.2.48,2.4,1,3.58,1.54a74.45,74.45,0,0,1,10.1,5.67c1,.67,2,1.37,3,2.1a84.9,84.9,0,0,1,8.55,7.22l1.18,1.15c.47.47.93.93,1.38,1.41a82.52,82.52,0,0,1,7.18,8.59c.73,1,1.42,2,2.09,3a72.92,72.92,0,0,1,5.63,10.14q.82,1.78,1.53,3.6a62.51,62.51,0,0,1,3.06,10.34c.07.31.13.62.19.93.11.59.21,1.17.3,1.76.14.91.26,1.81.35,2.71l.06.62a43.81,43.81,0,0,1-1,14.76,37.65,37.65,0,0,1-1.22,3.9A31.83,31.83,0,0,1,209,209.65Z" transform="translate(0.5 0.5)"/><path class="cls-4" d="M276.15,290l21.52,21.07,11.6-11.72-14.21-13.91-7.23-7.08-.17-.14-6.55-6.42-7.23-7.08a5.27,5.27,0,0,0-5.63-1.11,5.14,5.14,0,0,0-1.71,1.11L262.13,269a5,5,0,0,0,0,7.19l13.65,13.35A5.2,5.2,0,0,0,276.15,290Z" transform="translate(0.5 0.5)"/><path class="cls-5" d="M267.23,272.63l13,12.75a2.69,2.69,0,0,0,.27.32l.72.71L302,306.72l7.27-7.34L295,285.45l-7.23-7.08-.17-.14-6.55-6.42-7.23-7.08a5.29,5.29,0,0,0-7.35,0,5,5,0,0,0,0,7.19Z" transform="translate(0.5 0.5)"/><path class="cls-6" d="M289.6,290.41a3.24,3.24,0,0,0,.29.34l14.18,13.88,5.22-5.28-14.2-13.9a.48.48,0,0,1-.11-.09l-13.84-13.55a3.78,3.78,0,0,0-5.27,0,3.6,3.6,0,0,0,0,5.16Z" transform="translate(0.5 0.5)"/></g><g id="Badminton"><path class="cls-7" d="M193.37,142.77l-7,7a15.77,15.77,0,0,0-2.45,3.19h0a15.33,15.33,0,0,0,24.13,18.49l7-7Z" transform="translate(0.5 0.5)"/><path class="cls-8" d="M193.37,142.77l-7,7a15.77,15.77,0,0,0-2.45,3.19h0A15.33,15.33,0,0,0,210.09,163l1.78-1.77Z" transform="translate(0.5 0.5)"/><path class="cls-1" d="M193.37,142.77,213.46,97a6.59,6.59,0,0,1,10.7-2l38.65,38.66a6.59,6.59,0,0,1-2,10.7l-45.75,20.09" transform="translate(0.5 0.5)"/><circle class="cls-9" cx="196.26" cy="153.97" r="4.5"/><path class="cls-10" d="M254.33,125.17l-45,33.79,5.71,5.48,45.75-20.08a6.59,6.59,0,0,0,2-10.7Z" transform="translate(0.5 0.5)"/><path class="cls-11" d="M219.12,105.64h0A3.69,3.69,0,0,1,221,110.5l-11.09,25a3.68,3.68,0,0,1-4.86,1.87h0a3.67,3.67,0,0,1-1.87-4.85l11.09-25A3.68,3.68,0,0,1,219.12,105.64Z" transform="translate(0.5 0.5)"/></g><g id="fullsize"><rect class="cls-12" x="0.5" y="0.5" width="404" height="404"/></g></svg>