<svg id="Background" xmlns="http://www.w3.org/2000/svg" viewBox="0 0 404 404"><defs><style>.cls-1{fill:#4bc999;}.cls-2{fill:#34abe0;}.cls-3{fill:#5bd3a2;}.cls-4{fill:#78caef;}</style></defs><title>icon-background</title><rect class="cls-1" y="166.1" width="404" height="237.9"/><rect class="cls-2" width="404" height="166.1"/><path class="cls-3" d="M278.3,237h0a5,5,0,0,0-5-5H226.14a5,5,0,0,0-5,5h0a5,5,0,0,0,5,5H234a5,5,0,0,1,5,5h0a5,5,0,0,0,5,5h39.33a5,5,0,0,0,5-5h0a5,5,0,0,0-5-5h0A5,5,0,0,1,278.3,237Z" transform="translate(0)"/><path class="cls-3" d="M194.81,330.25h0a5,5,0,0,0-5-5H142.65a5,5,0,0,0-5,5h0a5,5,0,0,0,5,5h7.87a5,5,0,0,1,5,5h0a5,5,0,0,0,5,5h39.33a5,5,0,0,0,5-5h0a5,5,0,0,0-5-5h0A5,5,0,0,1,194.81,330.25Z" transform="translate(0)"/><path class="cls-3" d="M397.59,330.59H384.48c-2.25,0-4.07,2.22-4.07,5s-1.82,5-4.07,5H337.69c-2.24,0-4.06-2.22-4.06-5h0a5.16,5.16,0,0,0-5.16-5.16H314.8a5,5,0,0,1-4.91-5.07,5,5,0,0,0-5-4.87h-15.8A5.1,5.1,0,0,1,284,316a5,5,0,0,1,4.94-5.45h23.8a5,5,0,0,0,4.9-5.07,5,5,0,0,1,5-4.87h47.19a5,5,0,0,1,5,5V317a3.59,3.59,0,0,0,2.05,3.34,3.4,3.4,0,0,0,1.35.28h19.44c2.24,0,4.06,2.23,4.06,5S399.83,330.59,397.59,330.59Z" transform="translate(0)"/><path class="cls-3" d="M348.07,199.66h-51.7a5,5,0,0,1,0-9.94H312a3,3,0,0,0,2.44-1.45,6.17,6.17,0,0,0,1-3.51c0-2.75-1.54-5-3.45-5H265.19a5,5,0,0,0-5,5,4.93,4.93,0,0,1-4.4,4.91,5.48,5.48,0,0,1-.57.05h-16a5,5,0,1,0,0,9.94H263a5,5,0,0,1,5,5,5,5,0,0,0,5,5h75.16a3,3,0,0,0,2.44-1.45,6.17,6.17,0,0,0,1-3.51C351.52,201.88,350,199.66,348.07,199.66Z" transform="translate(0)"/><path class="cls-3" d="M14.68,372.55H66.39a5,5,0,0,0,0-9.94H50.79a3,3,0,0,1-2.45-1.46,6.22,6.22,0,0,1-1-3.51c0-2.74,1.55-5,3.46-5H97.57a5,5,0,0,1,5,5,4.93,4.93,0,0,0,1.46,3.51,4.88,4.88,0,0,0,2.94,1.4,5.23,5.23,0,0,0,.57.06h16a5,5,0,1,1,0,9.94H99.78a5,5,0,0,0-5,5,5,5,0,0,1-5,5H14.68A3.06,3.06,0,0,1,12.24,381a6.28,6.28,0,0,1-1-3.52C11.23,374.77,12.78,372.55,14.68,372.55Z" transform="translate(0)"/><path class="cls-3" d="M245.87,302.05a5,5,0,0,1,5-5h6.56a3,3,0,0,0,2.44-1.46,6.24,6.24,0,0,0,1-3.51c0-2.74-1.55-5-3.45-5H244.29a5,5,0,0,1-4.9-5.07,5,5,0,0,0-5-4.86H192.8a5.14,5.14,0,0,0-5.2,5.16,5,5,0,0,0,5,4.77h13.31a5.15,5.15,0,0,1,5.2,5.15,5,5,0,0,1-4.94,4.79H202c-1.91,0-3.46,2.22-3.46,5a6.15,6.15,0,0,0,1,3.51A3,3,0,0,0,202,307h40.43a3,3,0,0,0,2.44-1.46,6.22,6.22,0,0,0,1-3.51Z" transform="translate(0)"/><path class="cls-3" d="M144.91,297.1H131.8c-2.25,0-4.07-2.23-4.07-5s-1.82-5-4.07-5H85c-2.25,0-4.07,2.22-4.07,5h0a5.16,5.16,0,0,1-5.16,5.16H62.12a5,5,0,0,0-4.9,5.06,5,5,0,0,1-5,4.87H36.46a5.11,5.11,0,0,0-5.16,4.48,5,5,0,0,0,4.94,5.46H60A5,5,0,0,1,65,322.22a5,5,0,0,0,5,4.87H117.1a5,5,0,0,0,5-5V310.65a3.59,3.59,0,0,1,2.05-3.34,3.43,3.43,0,0,1,1.35-.28h19.44c2.25,0,4.07-2.22,4.07-5S147.16,297.1,144.91,297.1Z" transform="translate(0)"/><path class="cls-3" d="M323.11,358.4H289.52v-.07H226.19a5,5,0,0,0-5,5,5,5,0,0,1-5,5h-16a5,5,0,0,0,0,9.94H224a5,5,0,0,1,5,5,5,5,0,0,0,5,5h55.6v.07h25.87a5,5,0,0,0,0-9.93h-16a5,5,0,0,1,0-9.94h23.73a5,5,0,1,0,0-9.93Z" transform="translate(0)"/><path class="cls-3" d="M188.22,211.67a5,5,0,0,1-5-5h0a5,5,0,0,0-5-5H73.91c-1.91,0-3.45,2.22-3.45,5a6.18,6.18,0,0,0,1,3.52,3,3,0,0,0,2.44,1.45h30.56a5,5,0,1,1,0,9.94h-14a5,5,0,1,0,0,9.93h4.22a5,5,0,1,1,0,9.94H59.25c-1.9,0-3.45,2.22-3.45,5a6.24,6.24,0,0,0,1,3.51,3,3,0,0,0,2.44,1.45h91.93a5,5,0,0,0,5-5,5,5,0,0,1,5-5h.48a5,5,0,0,0,0-9.94h-9.11a5,5,0,0,1,0-9.93h35.73a5,5,0,0,0,5-5h0A5,5,0,0,0,188.22,211.67Z" transform="translate(0)"/><path class="cls-3" d="M45.57,169.22H12v-.07H0V199H12V199H37.85a5,5,0,0,0,0-9.93h-16a5,5,0,0,1,0-9.94H45.57a5,5,0,1,0,0-9.93Z" transform="translate(0)"/><path class="cls-3" d="M0,257.36H21.91a5,5,0,0,1,5,5,5,5,0,0,0,5,5h16a5,5,0,0,1,0,9.94H24.12a5,5,0,0,0-5,5,5,5,0,0,1-5,5H0Z" transform="translate(0)"/><path class="cls-3" d="M380.58,172.71a5,5,0,0,0-5,5h0a5,5,0,0,0,5,5h7.86a5,5,0,0,1,5,5h0a5,5,0,0,0,5,5H404V172.71Z" transform="translate(0)"/><path class="cls-3" d="M386.05,273.83a5,5,0,0,0,5-5h0a5,5,0,0,1,5-5h8v19.87H386.05a5,5,0,0,1-5-5h0A5,5,0,0,1,386.05,273.83Z" transform="translate(0)"/><path class="cls-3" d="M392.58,209.59c-2.24,0-4.06,2.23-4.06,5a5.16,5.16,0,0,1-5.16,5.16H369.69a5,5,0,0,0-4.91,5.07,5,5,0,0,1-5,4.86H344a5.11,5.11,0,0,0-5.15,4.48,5,5,0,0,0,4.94,5.46h23.8a5,5,0,0,1,4.9,5.07,5,5,0,0,0,5,4.86H404V209.59Z" transform="translate(0)"/><path class="cls-3" d="M372.22,394.06h13.11c2.25,0,4.07,2.23,4.07,5s1.82,5,4.06,5h8.26V364.07H400a5,5,0,0,0-5,5v11.47a3.6,3.6,0,0,1-2.05,3.34,3.43,3.43,0,0,1-1.35.28H372.22c-2.25,0-4.07,2.22-4.07,5S370,394.06,372.22,394.06Z" transform="translate(0)"/><path class="cls-4" d="M125.7,84.85h0a5,5,0,0,0,5,5h47.19a5,5,0,0,0,5-5h0a5,5,0,0,0-5-5H170a5,5,0,0,1-5-5h0a5,5,0,0,0-5-5H120.73a5,5,0,0,0-5,5h0a5,5,0,0,0,5,5h0A5,5,0,0,1,125.7,84.85Z" transform="translate(0)"/><path class="cls-4" d="M55.93,122.23h51.7a5,5,0,0,1,0,9.94H92a3,3,0,0,0-2.44,1.45,6.17,6.17,0,0,0-1,3.51c0,2.75,1.54,5,3.45,5h46.78a5,5,0,0,0,5-5,4.93,4.93,0,0,1,4.4-4.91,5.48,5.48,0,0,1,.57-.05h16a5,5,0,1,0,0-9.94H141a5,5,0,0,1-5-5,5,5,0,0,0-5-5H55.93a3,3,0,0,0-2.44,1.45,6.17,6.17,0,0,0-1,3.51C52.48,120,54,122.23,55.93,122.23Z" transform="translate(0)"/><path class="cls-4" d="M158.13,19.84a5,5,0,0,1-5,5H146.6a3,3,0,0,0-2.44,1.46,6.24,6.24,0,0,0-1,3.51c0,2.74,1.55,5,3.45,5h13.11a5,5,0,0,1,4.9,5.07,5,5,0,0,0,5,4.86H211.2a5.14,5.14,0,0,0,5.2-5.16,5,5,0,0,0-5-4.77H198.13a5.15,5.15,0,0,1-5.2-5.15,5,5,0,0,1,4.94-4.79H202c1.91,0,3.46-2.22,3.46-5a6.15,6.15,0,0,0-1-3.51A3,3,0,0,0,202,14.87H161.58a3,3,0,0,0-2.44,1.46,6.22,6.22,0,0,0-1,3.51Z" transform="translate(0)"/><path class="cls-4" d="M215.78,110.22a5,5,0,0,1,5,5h0a5,5,0,0,0,5,5H330.09c1.91,0,3.45-2.22,3.45-5a6.17,6.17,0,0,0-1-3.51,3,3,0,0,0-2.44-1.45H299.53a5,5,0,1,1,0-9.94h14a5,5,0,1,0,0-9.93h-4.22a5,5,0,1,1,0-9.94h35.49c1.9,0,3.45-2.22,3.45-5a6.24,6.24,0,0,0-1-3.51,3,3,0,0,0-2.44-1.46H252.82a5,5,0,0,0-5,5,5,5,0,0,1-5,5h-.48a5,5,0,0,0,0,9.94h9.11a5,5,0,0,1,0,9.93H215.78a5,5,0,0,0-5,5h0A5,5,0,0,0,215.78,110.22Z" transform="translate(0)"/><path class="cls-4" d="M358.43,152.67H392v.07h12v-29.8H392v-.07H366.15a5,5,0,0,0,0,9.93h16a5,5,0,0,1,0,9.94H358.43a5,5,0,1,0,0,9.93Z" transform="translate(0)"/><path class="cls-4" d="M404,64.53H382.09a5,5,0,0,1-5-5,5,5,0,0,0-5-5h-16a5,5,0,1,1,0-9.94h23.74a5,5,0,0,0,5-5,5,5,0,0,1,5-5H404Z" transform="translate(0)"/><path class="cls-4" d="M23.42,149.18a5,5,0,0,0,5-5h0a5,5,0,0,0-5-5H15.56a5,5,0,0,1-5-5h0a5,5,0,0,0-5-5H0v19.87Z" transform="translate(0)"/><path class="cls-4" d="M18,48.06a5,5,0,0,0-5,5h0a5,5,0,0,1-5,5H0V38.12H18a5,5,0,0,1,5,5h0A5,5,0,0,1,18,48.06Z" transform="translate(0)"/><path class="cls-4" d="M11.42,112.3c2.24,0,4.06-2.23,4.06-5a5.16,5.16,0,0,1,5.16-5.16H34.31a5,5,0,0,0,4.91-5.07,5,5,0,0,1,5-4.86H60a5.11,5.11,0,0,0,5.15-4.48,5,5,0,0,0-4.94-5.46H36.39a5,5,0,0,1-4.9-5.07,5,5,0,0,0-5-4.87H0V112.3Z" transform="translate(0)"/><path class="cls-4" d="M114.87,1.43H99.07A5,5,0,0,1,95.59,0H3.75A3.67,3.67,0,0,0,6.41,1.24H25.85a3.4,3.4,0,0,1,1.35.28,3.59,3.59,0,0,1,2.05,3.34V16.33a5,5,0,0,0,5,5H81.41a5,5,0,0,0,5-4.87,5,5,0,0,1,4.9-5.07h23.8A5,5,0,0,0,120,5.91,5.1,5.1,0,0,0,114.87,1.43Z" transform="translate(0)"/><path class="cls-4" d="M367.76,4.73H344A5,5,0,0,1,339.09,0H281.93V11.23a3.6,3.6,0,0,1-2.05,3.35,3.43,3.43,0,0,1-1.35.28H259.09c-2.25,0-4.07,2.22-4.07,5s1.82,5,4.07,5H272.2c2.25,0,4.07,2.23,4.07,5s1.82,5,4.07,5H319c2.25,0,4.07-2.23,4.07-5a5.16,5.16,0,0,1,5.16-5.16h13.67a5,5,0,0,0,4.9-5.06,5,5,0,0,1,5-4.87h15.79a5.11,5.11,0,0,0,5.16-4.48A5,5,0,0,0,367.76,4.73Z" transform="translate(0)"/></svg>